<svg xmlns="http://www.w3.org/2000/svg" viewBox="0 0 1200 630" role="img" aria-label="The AI Planit — AI tools, honestly reviewed">
  <defs>
    <linearGradient id="og-bg" x1="0" y1="0" x2="1" y2="1">
      <stop offset="0%" stop-color="#0A0A0A"/>
      <stop offset="100%" stop-color="#0044CC"/>
    </linearGradient>
    <radialGradient id="og-planet" cx="35%" cy="35%" r="65%">
      <stop offset="0%" stop-color="#4D94FF"/>
      <stop offset="60%" stop-color="#0066FF"/>
      <stop offset="100%" stop-color="#0033AA"/>
    </radialGradient>
  </defs>
  <rect width="1200" height="630" fill="url(#og-bg)"/>
  <g opacity="0.18" fill="#FFFFFF">
    <circle cx="180" cy="80"  r="1.5"/>
    <circle cx="400" cy="120" r="1"/>
    <circle cx="950" cy="60"  r="1.5"/>
    <circle cx="1100" cy="200" r="1"/>
    <circle cx="600" cy="40"  r="1"/>
    <circle cx="80" cy="500" r="1.5"/>
    <circle cx="1050" cy="540" r="1"/>
  </g>
  <g transform="translate(180, 315)">
    <ellipse cx="0" cy="0" rx="160" ry="34" fill="none" stroke="#9CC9FF" stroke-width="5"
             transform="rotate(-22)" opacity="0.7"/>
    <circle cx="0" cy="0" r="100" fill="url(#og-planet)"/>
    <ellipse cx="-25" cy="-22" rx="36" ry="14" fill="#FFFFFF" opacity="0.22"/>
    <ellipse cx="20" cy="28" rx="22" ry="8" fill="#FFFFFF" opacity="0.15"/>
    <path d="M -160 -10 Q 0 -55 160 10" fill="none" stroke="#9CC9FF" stroke-width="5"
          transform="rotate(-22)" stroke-linecap="round" opacity="0.7"/>
    <circle cx="150" cy="-5" r="6" fill="#0066FF" transform="rotate(-22)"/>
  </g>
  <g font-family="-apple-system, BlinkMacSystemFont, 'Segoe UI', Helvetica, Arial, sans-serif">
    <text x="380" y="280" font-size="84" font-weight="800" fill="#FFFFFF">The AI Planit</text>
    <text x="380" y="340" font-size="36" font-weight="400" fill="#9CC9FF">AI tools, honestly reviewed.</text>
    <text x="80" y="580" font-size="24" font-weight="500" fill="#FFFFFF" opacity="0.7">theaiplanit.com</text>
  </g>
</svg>
